/* XPM */
static char * icon_xpm[] = {
"48 48 119 2",
"  	c None",
". 	c #000000",
"+ 	c #E7A200",
"@ 	c #C68200",
"# 	c #FFC300",
"$ 	c #FFDD00",
"% 	c #FFFF00",
"& 	c #262628",
"* 	c #212123",
"= 	c #1C1D1E",
"- 	c #18191A",
"; 	c #151516",
"> 	c #3D3E40",
", 	c #353638",
"' 	c #303032",
") 	c #2A2B2C",
"! 	c #242526",
"~ 	c #1F2021",
"{ 	c #1A1B1C",
"] 	c #161617",
"^ 	c #434446",
"/ 	c #3F4143",
"( 	c #3B3C3F",
"_ 	c #2F3032",
": 	c #29292B",
"< 	c #232425",
"[ 	c #1E1E1F",
"} 	c #181819",
"| 	c #47484B",
"1 	c #454648",
"2 	c #414345",
"3 	c #2E2F30",
"4 	c #28282A",
"5 	c #212223",
"6 	c #1A1A1B",
"7 	c #131314",
"8 	c #00A7C6",
"9 	c #4B4D4F",
"0 	c #494B4D",
"a 	c #47484A",
"b 	c #424345",
"c 	c #333436",
"d 	c #2C2D2F",
"e 	c #252627",
"f 	c #00BFE3",
"g 	c #525457",
"h 	c #515255",
"i 	c #4D4E51",
"j 	c #494A4C",
"k 	c #3A3B3D",
"l 	c #323335",
"m 	c #202122",
"n 	c #111212",
"o 	c #01D7FF",
"p 	c #5E5F62",
"q 	c #626466",
"r 	c #636567",
"s 	c #5D5E61",
"t 	c #404143",
"u 	c #393A3C",
"v 	c #252527",
"w 	c #1B1C1D",
"x 	c #141515",
"y 	c #0F0F10",
"z 	c #43DEFF",
"A 	c #6E7073",
"B 	c #76777A",
"C 	c #7E8083",
"D 	c #888A8C",
"E 	c #6D6E71",
"F 	c #4B4C4E",
"G 	c #343537",
"H 	c #292A2C",
"I 	c #111112",
"J 	c #0D0D0D",
"K 	c #818386",
"L 	c #818285",
"M 	c #8D8F92",
"N 	c #9A9C9F",
"O 	c #86888A",
"P 	c #585A5C",
"Q 	c #414244",
"R 	c #38393B",
"S 	c #2D2E30",
"T 	c #141415",
"U 	c #030303",
"V 	c #78797C",
"W 	c #7E7F82",
"X 	c #686A6D",
"Y 	c #505154",
"Z 	c #434447",
"` 	c #3B3C3E",
" .	c #313234",
"..	c #1F1F21",
"+.	c #121213",
"@.	c #060606",
"#.	c #626467",
"$.	c #696B6E",
"%.	c #5C5D60",
"&.	c #535558",
"*.	c #4C4D4F",
"=.	c #444548",
"-.	c #2B2C2D",
";.	c #161718",
">.	c #09090A",
",.	c #436DFF",
"'.	c #4F5153",
").	c #4A4B4E",
"!.	c #3F4042",
"~.	c #363739",
"{.	c #272829",
"].	c #0D0E0E",
"^.	c #013EFF",
"/.	c #2A2B2D",
"(.	c #202021",
"_.	c #0036E3",
":.	c #444648",
"<.	c #002FC6",
"[.	c #0028A6",
"                                                                                                ",
"                                                                                                ",
"                                          . . . . . . . . .                                     ",
"                                      . . + + @ + + @ @ @ @ . .                                 ",
"                                  . . + + + + + + @ + + + @ + @ . .                             ",
"                                . + + # + # + # + + + @ + + @ + @ @ .                           ",
"                              . # # + # + # + # + # + + + @ + @ + @ + .                         ",
"                            . # # + # # # + # + # + # # + + + + + + @ + .                       ",
"                          . # # # # # # # # # # + # # + + # + + @ + + @ + .                     ",
"                          . $ # % % % % # # + # # # + # # # # # + + @ + @ @ .                   ",
"                        . $ $ % . . . . # $ # # # # # # + # # + # + + + + + @ .                 ",
"                        . $ # . + + + + $ # % % % % # # # # + # # + + @ + @ @ .                 ",
"                      . $ % $ + $ $ $ $ $ $ + . . . % $ # # # # + # + + + @ + @ .               ",
"                    . % % % $ % $ $ % $ # $ $ + + + . % $ # # # # # + + @ + @ @ .               ",
"                    . % % $ % % $ % $ $ $ $ $ # $ $ + . % $ # + # # + + + + @ @ @ .             ",
"                  . % % % % % % % $ % $ $ % $ $ $ # $ $ $ # $ # # + # + + @ + @ @ .             ",
"                . % % $ % % $ % % . % $ % $ $ $ # $ $ $ # $ # # # # + + + + @ @ @ .             ",
"              . % $ % % % % % % % . % % $ $ % $ $ $ # $ $ # $ # # + # + + @ + @ @ .             ",
"              . % & * = - ; % % % . % $ % % % . $ $ $ $ # $ # # # # + + + + @ @ @ .             ",
"            > % , ' ) ! ~ { ] % % $ % % % $ % . % $ $ $ $ # $ # # + # + + @ + @ @ .             ",
"            ^ / ( , _ : < [ } % $ % % % % % % . $ % $ # $ $ # # # # + + + + + @ @ .             ",
"            | 1 2 ( , 3 4 5 6 7 % % $ % % $ % $ $ $ $ $ $ # $ # # # # + + + @ @ . 8 .           ",
"            9 0 a b ( c d e = ; % % % % % % % % % $ $ $ # $ $ # + # + + + + @ . 8 f f . . .     ",
"            g h i j b k l ) m - n % % % % % % $ $ % $ $ $ # $ # # # # + + + @ . f f f o o o .   ",
"            p q r s i t u _ v w x y % $ % % $ % % $ $ % $ $ # $ # # + + + + @ . o o o z z z z . ",
"            A B C D E F > G H ~ } I J % % % % % $ % $ $ $ $ $ # # + # + + @ + @ . z z z o o .   ",
"            K L M N O P Q R S < w T y U $ % % % $ % $ % $ # $ $ # # # # + + + @ . o o o f f .   ",
"            V $ L W X Y Z `  .4 ..} +.@.% % % $ % $ % $ $ $ # $ # # # + + + + + @ . 8 8 8 .     ",
"          #.$.% % %.&.*.=.> G -.< = ;.>.% % % % $ % $ $ % $ $ # # . $ # # + @ + @ . f f f .     ",
"        . ,.,.. % % '.).1 !.~.3 {.* w ].$ % % $ % $ % $ $ $ # $ # . $ # # # + + + @ . o o .     ",
"      . ,.^.,.^.. % % ).1 / R  ./.! (.% % % % % $ . $ $ $ # $ # # . % $ # # + @ + @ . z z o .   ",
"    . ,.^.,.^.^._.. % % :.t k c 3 % % $ % % % $ $ . . % $ # $ # # + . % $ # # + + @ . o z z .   ",
"  . ,.^.,.^.^._._.<.. % % % % % % $ % % $ % $ % $ . . . $ $ $ $ # + + . % $ # # + + @ . o z z . ",
"  . ,.,.^.^._._._.<.[.. % . % % % $ $ % % $ % $ . % % $ $ $ $ # # + . % $ # # + + + @ . f o .   ",
"  . ,.^.^._._.<.<.<.[.. % % . . . . . . . . . . $ % $ $ $ # # + + . % $ # # + # + + @ . 8 .     ",
"    . ^.^._._.<.. [..   . % % $ % $ % % % % % $ % $ $ $ # # + + . % $ # # + # + + @ . o f .     ",
"      . _._.<.<.[..       . % % $ % $ % $ % $ % $ % # # + . . . % $ # # # # + + @ . z o o .     ",
"        . [.[.[..           . % $ % # $ # $ % $ $ # + + . ,.,.,.. # + # + + + @ . z z z z z .   ",
"          . . .               . . % # # $ $ $ # # + . . ,.^.,.^.^.. + + # + @ . o o o o . .     ",
"                                  . . . # + # # + + . ,.^.,.^.^._._.. @ + @ . z o f f .         ",
"                                        . . . . . . ,.^.,.^.^._._.<.<.. @ . o z o 8 8 .         ",
"                                                  . ,.,.^.^._._._.<.[.. . f o z o f .           ",
"                                                  . ,.^.^._._.<.<.<.[.. f o z . . .             ",
"                                                    . ^.^._._.<.. [..   . z .                   ",
"                                                      . _._.<.<.[..       .                     ",
"                                                        . [.[.[..                               ",
"                                                          . . .                                 ",
"                                                                                                "};
