<?xml version="1.0" encoding="utf-8"?>
<!DOCTYPE svg PUBLIC "-//W3C//DTD SVG 1.1//EN" "http://www.w3.org/Graphics/SVG/1.1/DTD/svg11.dtd" [
	<!ENTITY ns_svg "http://www.w3.org/2000/svg">
	<!ENTITY ns_xlink "http://www.w3.org/1999/xlink">
]>
<svg  version="1.1" id="Layer_1" xmlns="&ns_svg;" xmlns:xlink="&ns_xlink;" width="559" height="783" viewBox="0 0 559 783"
	 overflow="visible" enable-background="new 0 0 559 783" xml:space="preserve">
<linearGradient id="XMLID_13_" gradientUnits="userSpaceOnUse" x1="154.3999" y1="513.0703" x2="184.0601" y2="513.0703" gradientTransform="matrix(1 0 0 -1 -1 781)">
	<stop  offset="0" style="stop-color:#00FFFF"/>
	<stop  offset="0.3708" style="stop-color:#00CCC2"/>
	<stop  offset="1" style="stop-color:#00FFFF"/>
</linearGradient>
<path fill="url(#XMLID_13_)" d="M166.63,255.93c-3.72,6.58-6.13,10.4-4.3,16.07c2,4.17,5.57,6.88,8.84,10
	c4.07,3.89,8.08,7.97,11.89,11.97c-1.56,1.27-3.36,5.08-5.3,5.71c-2.47-4.01-7.01-7.51-11.64-7.18c-3.08-4-3.54-11.74-10.11-11.37
	c4.38-4.51,2.87-10.63-2.42-13.48c5.59-7.28,5.91-15.45-0.19-22.57c3.41-4.89,11.89-2.18,14.59-8.9
	C174.24,241.44,170.63,248.85,166.63,255.93z"/>
<path d="M262.13,256.94c-4.98,5.46-19.66,13.31-8.71,20.18c0,0,1.58-4.15,3.68-3.34c-0.6,1.66-2.16,3.03-1.97,4.41
	c0.68,4.97,8.41,6.81,13.91-0.39c4.49-4.31,5.92-5.13,5.58-7.47C274.42,265.13,267.15,259.53,262.13,256.94z M190.75,299.93
	c1.79,2.07,4,3.74,6.92,3.4c3.25-0.04,13.58-10.25,13.04-13.5c0.07-1.69-2.94-5.48-6.37-8.27c-2.8-2.27-5.88-3.77-7.81-3.78
	c-1.81,0.229-4.63,2.76-6.72,4.72c-2.64,3.39-5.5,6.22-5.59,7.94c-0.25,2.18,2.72,6.72,5.44,8.31c-0.45-1.63,1.53-4.75,3.65-5.16
	C193.95,294.56,190.08,298.12,190.75,299.93z M156.33,256.92c-0.25-5.42-1.12-8-5.25-11.71c2.37-4.61,6.8-4.79,10.37-5.96
	c1.91-0.63,3.88-1.83,4.64-3.48c-1.47-12.83,2.74-22.85,10.41-32.77c6-8,14.05-12.45,21.53-15.94c17.39-6.07,35.97,0.56,45.22,16.56
	c1.39,2.52,3.11,6.12,4.96,8.88c4,6,8.62,11.35,11.87,16.25c4.59,7.42,3.98,16.31,2.92,24.38c0,3.43,1.36,3.32,3.06,4.68
	c3.74,2.89,7.79,5.82,9.27,9.86c0.46,1.25,1.38,2.16,0,5.33c-1.87,2.58-3.33,3.9-5.71,5.69c-2,2.46-4.91,5.27-7.87,5.48
	c-3.75-0.18-5.95-2.25-8.25-4.84c-1.71-1.92-3.88-3.21-5.38-5.02c-3.01,3.21-5.77,5.8-9.7,8.11c-8.21,4.41-17.59,7.3-26.25,7.08
	c-1.25,6.08-8.09,12.75-13.71,15.12c-5.46,1.46-11.46-6.24-14.46-9c-1.5,0.38-3.63,4.19-6.5,5.3c-1.42-2.3-3.17-4.63-5.54-6.04
	c-2.66-1.72-3.68-1.54-6.46-1.38c-1.42-2.46-3.17-7.04-4.75-9.33c-2.29-2.17-4.08-1.59-6.67-2.34c1.13-1.75,3.59-4.95,2.92-7.66
	c-1.33-5-2.32-4.22-4.92-6.34C155.58,261.92,156.12,260,156.33,256.92z M196.94,275.71c1.48,0.16,5.78,2.98,7.16,4.01
	c1.38,1.021,3.19,3.03,4.62,4.51c0.67,0.86,2.06,1.93,2.75,2.36c3.18,2.01,6.25,2.52,21.87-3.23c7.88-4.17,8-4.55,10.75-6.92
	c1.38-1.19,3.16-2.45,3.6-4.88c0.62-3.5,3.87-6.81,7.97-10.26c1.84-1.62,3.75-3.41,5.26-5.63c0.7-1.05,0.8-2.76,0.91-3.59
	c1-7.5,1.06-13.41-1.61-19.66c-1.92-4.33-3.4-5.2-4.75-7.41c-2.71-3.88-6.51-8.1-9.22-12.32c-2.7-4.23-4.31-8.45-5.34-10.05
	c-4.16-6.47-10.85-11.51-18.16-13.89s-14.67-3.42-22.95-0.42c-8.85,3.74-16.55,8.34-23.13,17.17c-5.89,8.01-9.77,18.42-7.86,28.56
	c7.49,5.18,5.6,11.71,1.98,18.38c-3.61,6.68-9.64,14.49-5.89,20.19c2.43,3.7,5.65,6.07,8.6,9.04c2.9,2.92,6.36,5.48,8.97,8.5
	c-0.06-0.1,0.3,0.11,0.53-1.21c1.29-3.26,3.26-4.95,5.06-6.74c1.79-1.79,3.65-3.51,5.68-5.01c-1.72-1.97-3.72-3.69-5.69-5.47
	c-1.3-1.17-3.3-3.26-5.02-4.29c-0.79-0.47-0.96-1.17-0.65-1.39c1.93-1.35,4.35-2.94,5.22-4.84c0.86-1.9,1.07-3.56,1.29-5.38
	c0.08-0.75-0.11-1.34,0.03-2.16c0.13-0.82,1.36-0.33,1.68,0.72c0.31,1.04,0.34,2.04,0.34,2.54c0,1.84-0.43,3.75-1.62,5.43
	c-1.19,1.67-2.56,2.93-3.91,4.1c2.67,1.53,7.87,7.41,10.03,9.56C196.22,275.66,196.11,275.62,196.94,275.71z M162.33,272
	c-1.83-5.67,0.58-9.49,4.3-16.07c4-7.08,7.61-14.49,1.36-19.75c-2.7,6.72-11.18,4.01-14.59,8.9c6.1,7.12,5.78,15.29,0.19,22.57
	c5.29,2.85,6.8,8.97,2.42,13.48c6.57-0.37,7.03,7.37,10.11,11.37c4.63-0.33,9.17,3.17,11.64,7.18c1.94-0.63,3.74-4.44,5.3-5.71
	c-3.81-4-7.82-8.08-11.89-11.97C167.9,278.88,164.33,276.17,162.33,272z"/>
<linearGradient id="XMLID_14_" gradientUnits="userSpaceOnUse" x1="250.4556" y1="511.2422" x2="275.668" y2="511.2422" gradientTransform="matrix(1 0 0 -1 -1 781)">
	<stop  offset="0" style="stop-color:#0000FF"/>
	<stop  offset="0.0955" style="stop-color:#0000FE"/>
	<stop  offset="1" style="stop-color:#5FABFF"/>
</linearGradient>
<path fill="url(#XMLID_14_)" d="M274.62,270.33c0.34,2.34-1.09,3.16-5.58,7.47c-5.5,7.2-13.23,5.36-13.91,0.39
	c-0.19-1.38,1.37-2.75,1.97-4.41c-2.1-0.811-3.68,3.34-3.68,3.34c-10.95-6.87,3.73-14.72,8.71-20.18
	C267.15,259.53,274.42,265.13,274.62,270.33z"/>
<linearGradient id="XMLID_15_" gradientUnits="userSpaceOnUse" x1="164.7148" y1="542.6719" x2="263.4648" y2="542.6719" gradientTransform="matrix(1 0 0 -1 -1 781)">
	<stop  offset="0" style="stop-color:#FFB000"/>
	<stop  offset="0.6573" style="stop-color:#FFFF00"/>
	<stop  offset="1" style="stop-color:#FFFC96"/>
</linearGradient>
<path fill="url(#XMLID_15_)" d="M260.22,232.42c2.67,6.25,2.61,12.16,1.61,19.66c-0.11,0.83-0.21,2.54-0.91,3.59
	c-1.51,2.22-3.42,4.01-5.26,5.63c-4.1,3.45-7.35,6.76-7.97,10.26c-0.44,2.43-2.22,3.69-3.6,4.88c-2.75,2.37-2.87,2.75-10.75,6.92
	c-15.62,5.75-18.69,5.24-21.87,3.23c-0.69-0.43-2.08-1.5-2.75-2.36c-1.43-1.48-3.24-3.49-4.62-4.51c-1.38-1.03-5.68-3.85-7.16-4.01
	c-0.83-0.09-0.72-0.05-1.5,0.32c-2.16-2.15-7.36-8.03-10.03-9.56c1.35-1.17,2.72-2.43,3.91-4.1c1.19-1.68,1.62-3.59,1.62-5.43
	c0-0.5-0.03-1.5-0.34-2.54c-0.32-1.05-1.55-1.54-1.68-0.72c-0.14,0.82,0.05,1.41-0.03,2.16c-0.22,1.82-0.43,3.48-1.29,5.38
	c-0.87,1.9-3.29,3.49-5.22,4.84c-0.31,0.22-0.14,0.92,0.65,1.39c1.72,1.03,3.72,3.12,5.02,4.29c1.97,1.78,3.97,3.5,5.69,5.47
	c-2.03,1.5-3.89,3.22-5.68,5.01c-1.8,1.79-3.77,3.48-5.06,6.74c-0.23,1.32-0.59,1.11-0.53,1.21c-2.61-3.02-6.07-5.58-8.97-8.5
	c-2.95-2.97-6.17-5.34-8.6-9.04c-3.75-5.7,2.28-13.51,5.89-20.19c3.62-6.67,5.51-13.2-1.98-18.38c-1.91-10.14,1.97-20.55,7.86-28.56
	c6.58-8.83,14.28-13.43,23.13-17.17c8.28-3,15.64-1.96,22.95,0.42s14,7.42,18.16,13.89c1.03,1.6,2.64,5.82,5.34,10.05
	c2.71,4.22,6.51,8.44,9.22,12.32C256.82,227.22,258.3,228.09,260.22,232.42z"/>
<linearGradient id="XMLID_16_" gradientUnits="userSpaceOnUse" x1="185.2056" y1="490.4229" x2="211.7305" y2="490.4229" gradientTransform="matrix(1 0 0 -1 -1 781)">
	<stop  offset="0" style="stop-color:#0000FF"/>
	<stop  offset="0.0955" style="stop-color:#0000FE"/>
	<stop  offset="1" style="stop-color:#5FABFF"/>
</linearGradient>
<path fill="url(#XMLID_16_)" d="M210.71,289.83c0.54,3.25-9.79,13.46-13.04,13.5c-2.92,0.34-5.13-1.33-6.92-3.4
	c-0.67-1.81,3.2-5.37,2.56-6.34c-2.12,0.41-4.1,3.53-3.65,5.16c-2.72-1.59-5.69-6.13-5.44-8.31c0.09-1.72,2.95-4.55,5.59-7.94
	c2.09-1.96,4.91-4.49,6.72-4.72c1.93,0.01,5.01,1.51,7.81,3.78C207.77,284.35,210.78,288.14,210.71,289.83z"/>
<g>
	<path fill="none" stroke="#000000" stroke-width="0.0938" d="M198.03,187.06c17.39-6.07,35.97,0.56,45.22,16.56
		c1.39,2.52,3.11,6.12,4.96,8.88c4,6,8.62,11.35,11.87,16.25c4.59,7.42,3.98,16.31,2.92,24.38c0,3.43,1.36,3.32,3.06,4.68
		c3.74,2.89,7.79,5.82,9.27,9.86c0.46,1.25,1.38,2.16,0,5.33c-1.87,2.58-3.33,3.9-5.71,5.69c-2,2.46-4.91,5.27-7.87,5.48
		c-3.75-0.18-5.95-2.25-8.25-4.84c-1.71-1.92-3.88-3.21-5.38-5.02c-3.01,3.21-5.77,5.8-9.7,8.11c-8.21,4.41-17.59,7.3-26.25,7.08
		c-1.25,6.08-8.09,12.75-13.71,15.12c-5.46,1.46-11.46-6.24-14.46-9c-1.5,0.38-3.63,4.19-6.5,5.3c-1.42-2.3-3.17-4.63-5.54-6.04
		c-2.66-1.72-3.68-1.54-6.46-1.38c-1.42-2.46-3.17-7.04-4.75-9.33c-2.29-2.17-4.08-1.59-6.67-2.34c1.13-1.75,3.59-4.95,2.92-7.66
		c-1.33-5-2.32-4.22-4.92-6.34c3.5-5.91,4.04-7.83,4.25-10.91c-0.25-5.42-1.12-8-5.25-11.71c2.37-4.61,6.8-4.79,10.37-5.96
		c1.91-0.63,3.88-1.83,4.64-3.48c-1.47-12.83,2.74-22.85,10.41-32.77C182.5,195,190.55,190.55,198.03,187.06z"/>
	<path fill="none" stroke="#000000" stroke-width="0.0938" d="M199.8,188.33c-8.85,3.74-16.55,8.34-23.13,17.17
		c-5.89,8.01-9.77,18.42-7.86,28.56c7.49,5.18,5.6,11.71,1.98,18.38c-3.61,6.68-9.64,14.49-5.89,20.19c2.43,3.7,5.65,6.07,8.6,9.04
		c2.9,2.92,6.36,5.48,9.09,8.64c-0.02-0.03-0.04-0.05-0.06-0.07s-0.04-0.04-0.06-0.06c0-0.01,0-0.01,0-0.01
		c-0.06-0.1,0.3,0.11,0.53-1.21c1.29-3.26,3.26-4.95,5.06-6.74c1.79-1.79,3.65-3.51,5.68-5.01c-1.72-1.97-3.72-3.69-5.69-5.47
		c-1.3-1.17-3.3-3.26-5.02-4.29c-0.79-0.47-0.96-1.17-0.65-1.39c1.93-1.35,4.35-2.94,5.22-4.84c0.86-1.9,1.07-3.56,1.29-5.38
		c0.08-0.75-0.11-1.34,0.03-2.16c0.13-0.82,1.36-0.33,1.68,0.72c0.31,1.04,0.34,2.04,0.34,2.54c0,1.84-0.43,3.75-1.62,5.43
		c-1.19,1.67-2.56,2.93-3.91,4.1c2.67,1.53,7.87,7.41,10.03,9.561c0.78-0.37,0.67-0.41,1.5-0.32c1.48,0.16,5.78,2.98,7.16,4.01
		c1.38,1.021,3.19,3.03,4.62,4.51c0.67,0.86,2.06,1.93,2.75,2.36c3.18,2.01,6.25,2.52,21.87-3.23c7.88-4.17,8-4.55,10.75-6.92
		c1.38-1.19,3.16-2.45,3.6-4.88c0.62-3.5,3.87-6.81,7.97-10.26c1.84-1.62,3.75-3.41,5.26-5.63c0.7-1.05,0.8-2.76,0.91-3.59
		c1-7.5,1.06-13.41-1.61-19.66c-1.92-4.33-3.4-5.2-4.75-7.41c-2.71-3.88-6.51-8.1-9.22-12.32c-2.7-4.23-4.31-8.45-5.34-10.05
		c-4.16-6.47-10.85-11.51-18.16-13.89S208.08,185.33,199.8,188.33"/>
	<path fill="none" stroke="#000000" stroke-width="0.0938" d="M153.4,245.08c6.1,7.12,5.78,15.29,0.19,22.57
		c5.29,2.85,6.8,8.97,2.42,13.48c6.57-0.37,7.03,7.37,10.11,11.37c4.63-0.33,9.17,3.17,11.64,7.18c1.94-0.63,3.74-4.44,5.3-5.71
		c-3.81-4-7.82-8.08-11.89-11.97c-3.27-3.12-6.84-5.83-8.84-10c-1.83-5.67,0.58-9.49,4.3-16.07c4-7.08,7.61-14.49,1.36-19.75
		C165.29,242.9,156.81,240.19,153.4,245.08z"/>
	<path fill="none" stroke="#000000" stroke-width="0.0938" d="M257.1,273.78c-0.6,1.66-2.16,3.03-1.97,4.41
		c0.68,4.97,8.41,6.81,13.91-0.39c4.49-4.31,5.92-5.13,5.58-7.47c-0.2-5.2-7.47-10.8-12.49-13.39c-4.98,5.46-19.66,13.31-8.71,20.18
		C253.42,277.12,255,272.97,257.1,273.78z"/>
	<path fill="none" stroke="#000000" stroke-width="0.0938" d="M204.34,281.56c-2.8-2.27-5.88-3.77-7.81-3.78
		c-1.81,0.229-4.63,2.76-6.72,4.72c-2.64,3.39-5.5,6.22-5.59,7.94c-0.25,2.18,2.72,6.72,5.44,8.31c-0.45-1.63,1.53-4.75,3.65-5.16
		c0.64,0.97-3.23,4.53-2.56,6.34c1.79,2.07,4,3.74,6.92,3.4c3.25-0.04,13.58-10.25,13.04-13.5
		C210.78,288.14,207.77,284.35,204.34,281.56z"/>
</g>
<path stroke="#000000" stroke-width="0.0938" d="M225.771,207.319c0-1.153,2.625-1.09,4.875-0.965
	c0.992,0.035,2.793,0.431,3.667,0.708c1.375,0.438,4.752,3.592,3.938,4.184c-0.521,0.379-1.876-0.767-3.146-1.642
	c-1.125-0.708-2.813-1.354-4.813-1.479C227.193,207.99,225.917,208.188,225.771,207.319z"/>
<path stroke="#000000" stroke-width="0.0938" d="M231.98,223.11"/>
<path stroke="#000000" stroke-width="0.0938" d="M243.25,228.125c12.83-3.66,19.18,9.705,17.24,19.795
	c-1.32,6.34-7.24,10.33-12.12,14.64c-9.245,8.565-30.56-1.44-21.25-13.45C235.125,243.25,236.27,233.065,243.25,228.125"/>
<path stroke="#000000" stroke-width="0.0938" d="M215.14,228.85"/>
<path stroke="#000000" stroke-width="0.0938" d="M211.016,260.422c0.087-0.451,0.375-0.422,0.392,0.161
	c-0.1,1.306-0.095,1.125-0.491,4.229c-0.078,0.734,0.286,1.422,1.005,2.172c2.609,2.703,8.142,6.292,12.953,6.683
	c1.938,0.157,6.014-0.078,9.667-1.042c3.056-0.807,4.741-2.057,7.936-3.582c1.247-0.595,2.149,0.642,1.106,1.623
	c-1.689,0.71-5,2.667-10.917,4c-4.5,0.667-7.458,1.167-12.917-0.583c-4.875-1.833-5.167-2.292-10.66-6.374
	c-0.644-0.479-2.06,0.054-3.032,0.28c-1,0.281-1.677,0.407-2.094,0.453c-0.792,0.088-0.505-0.213-0.047-0.359
	c1.838-0.682,4.169-1.386,5.042-2.542C209.884,264.317,210.609,262.516,211.016,260.422z"/>
<path stroke="#000000" stroke-width="0.0938" d="M215.196,227.288c0.409-0.913,1.385-0.726,1.938-0.04
	c0.481,2.752,0.468,4.59,0.019,6.86c-0.514,0.83-1.575,1.614-2.122,0.08C214.487,230.597,214.571,229.625,215.196,227.288z"/>
<path stroke="#000000" stroke-width="0.0938" d="M231.622,221.08c0.4-0.913,1.354-0.726,1.895-0.04
	c0.47,2.752,0.458,4.59,0.019,6.86c-0.502,0.83-1.54,1.614-2.075,0.08C230.929,224.389,231.011,223.417,231.622,221.08z"/>
<circle fill="#FFFFFF" stroke="#FFFFFF" stroke-width="0.0938" cx="232.25" cy="251.016" r="1.484"/>
<path stroke="#000000" stroke-width="0.0938" d="M212.906,213.688c-2.094,0.25-3.188,0.812-4.312,2c-1.25,1.156-3,5.094-3.927,4.729
	c-0.936-0.368,1.177-6.042,4.802-7.511c1.013-0.411,2.665-0.837,3.657-0.872c2.25-0.125,4.594-0.281,4.593,0.872
	C217.761,213.962,216.005,213.552,212.906,213.688z"/>
<g id="XMLID_2_">
	<g>
		<path fill="#FFFFFF" d="M341.17,381.25c-2.84-1-3.59-2.33-4.67-5.67c-0.8-2.91,0.25-7.2,4.56-7.27c3.86-0.02,5.091,4.23,9.65,5.73
			c2.45,0.77,6.54,0.63,9.62,0.38c3.63-0.38,5.27,1.11,4.979,3.14c-1.5,2.56-7.89,3.61-12.31,4.19
			C344.42,382.67,345.5,382.42,341.17,381.25z"/>
		<path d="M337.55,367.08c2.681-1.4,4.07-1.88,7.07-0.89c1.81,0.59,4.34,3.6,8.21,4.85c3.84,1.24,5.92,0.08,9.21,0.75
			c4.92,1,7.04,2.55,6.11,5.69c-1.32,4.48-9.58,5.76-13.48,6.44c-3.91,0.68-3.53,0.97-7.67,1c-1.83,0.01-3.06,0.83-4.56,2.39
			c-0.971,0.94-1.86,3.07-2.53,3.44c-0.63,0.35-0.91-0.36-1.11-1.26c-0.58-2.57-0.229-4.77-1.109-6.18
			c-0.471-0.75-4.131-4-4.101-9.12C333.49,370.88,336.31,367.73,337.55,367.08z M350.71,374.04c-4.56-1.5-5.79-5.75-9.65-5.73
			c-4.31,0.07-5.359,4.36-4.56,7.27c1.08,3.34,1.83,4.67,4.67,5.67c4.33,1.17,3.25,1.42,11.83,0.5c4.42-0.58,10.81-1.63,12.31-4.19
			c0.29-2.03-1.35-3.52-4.979-3.14C357.25,374.67,353.16,374.81,350.71,374.04z"/>
		<path fill="#FFFFFF" d="M413.5,413.75c0,0,2.63,4.08,0.17,6.83c-1.07,1.2-3.56,2.75-6,3.939c-2.51,1.221-4.97,2.061-5.83,1.761
			c-1.99-0.7-7.01-9.45-9.88-7.601c-2.87,1.851,6.79,5.57,6.42,9.9c-0.37,2.08-5.46,8.96-7.58,4.14
			c-3.79-8.22-13.77-1.29-15.42,4.73c2.58-0.101,5.811-3.51,8.25-4.76c3.12,2.81,5.26,5.869,10.08,4.979
			c3.42,4.58,14.1,11.2,7.92,15.5c-4.78,2.7-22.1,11.63-22.46,12.08c-11,5.25-14.09,7.83-26.09,13.33c-2.79,0.63-4.36-0.23-6-2.25
			c-2.91-3.5,7.21-7.25,7.34-9.96c-2.59-0.7-3.7,1.37-5.5,3.05c-1.71,1.59-3.49,3.28-5.72,3.68c-1.71,0.301-3.67-0.14-6.061-1.939
			c-2.06-1.91,0.351-4.46,3.03-6.24c1.55-1.04,3.75-1.92,3.811-3.49c-8.021,0.49-11.73,12.15-18.62,11.771
			c-4.03-0.78-6.36-2.37-6.53-5.62c0.17-4.66,11.1-14.76,16.17-18.41c6.25,3.33,11.69,8.66,19.92,8.66
			c9.14,0,18.41-9.08,18.58-11.65c-5.02,0.141-10,9.2-17.5,9.2c-6.58,0-22.96-6.92-25.72-15.99c-0.48-1.96,0.05-3.22,0.92-4.949
			c1.22-2.271,0.72-4.11,7.66-2.28c8.699,0.37,5.699-11.28,10.08-14.16c2.81-1.79,4.02-1.12,7.75-0.19
			c3.77,1.021,8.85,3.94,14.979,8.11c1.75,1.12,1.97-1.6,0-3.5c-2.92-2.59-5.67-2.5-5.42-5.5c1.5-12.84,1.81-12.729,1.22-18.74
			c-0.3-2.43-3.14-4.85-5.689-5.689c-9.601-2.51-15.57,7.84-20.4,15.51c-2.29-1.74-3.27-2.23-6-3.37c-2.84-1.14-4.22-1.16-5.689-1
			c0.369-1.5,0.729-3.3,0.64-5.63c0.3-7.37-1.08-17.67-10.33-17.92c-9.05,1.53-13.92,17.84-19.63,24.86c-1.7,2.479-3.18,2.34-5.12,2
			c-3.75-1.19-4.58-6.521-4.19-9.811c1.44-8.75,10.61-20.05,19.271-27.05c0,0,11.09-9.33,30.67-12.91
			c19.58-3.59,36.61,5.73,36.61,5.73c8.449,3.87,14.87,9.14,19.72,14.72c1.4,2,2,2.8,2.25,4.55c-0.54,0.87-1.87,1.04-1,1.66
			c3.75,2.58,5.3,8.38,2.21,11.79c-1.7,1.96-4.7,2.64-7.33,1.92c-2.54-0.83-4.83-4.46-5.58-5.79c-0.55-1.42-2.34-0.54-1.899,0.52
			c2.47,5.28,7.75,9.74,13.88,7.25c2.39-1.35,2.31-1.52,3.43-3.029C405.66,402.49,413.5,413.75,413.5,413.75z M368.15,377.48
			c0.93-3.14-1.19-4.69-6.11-5.69c-3.29-0.67-5.37,0.49-9.21-0.75c-3.87-1.25-6.4-4.26-8.21-4.85c-3-0.99-4.39-0.51-7.07,0.89
			c-1.24,0.65-4.06,3.8-3.96,7.11c-0.03,5.12,3.63,8.37,4.101,9.12c0.88,1.41,0.529,3.61,1.109,6.18c0.2,0.9,0.48,1.61,1.11,1.26
			c0.67-0.37,1.56-2.5,2.53-3.44c1.5-1.56,2.729-2.38,4.56-2.39c4.14-0.03,3.76-0.32,7.67-1
			C358.57,383.24,366.83,381.96,368.15,377.48z M358.5,435.75c0-1.45-1.17-2.63-2.62-2.63c-1.46,0-2.63,1.18-2.63,2.63
			s1.17,2.63,2.63,2.63C357.33,438.38,358.5,437.2,358.5,435.75z M358.5,446.38c0-1.46-1.17-2.63-2.62-2.63
			c-1.46,0-2.63,1.17-2.63,2.63c0,1.45,1.17,2.62,2.63,2.62C357.33,449,358.5,447.83,358.5,446.38z M347.62,441
			c0-1.45-1.17-2.62-2.62-2.62s-2.62,1.17-2.62,2.62s1.17,2.62,2.62,2.62S347.62,442.45,347.62,441z"/>
		<path d="M416,413.89c1.5,2.86,1.67,5.61,0,7.681c-0.61,0.76-4.18,2.319-7.85,4l-0.48-1.051c2.44-1.189,4.93-2.739,6-3.939
			c2.46-2.75-0.17-6.83-0.17-6.83s-7.84-11.26-10.21-17.26c-1.12,1.51-1.04,1.68-3.43,3.029c-6.13,2.49-11.41-1.97-13.88-7.25
			c-0.44-1.06,1.35-1.939,1.899-0.52c0.75,1.33,3.04,4.96,5.58,5.79c2.63,0.72,5.63,0.04,7.33-1.92c3.09-3.41,1.54-9.21-2.21-11.79
			c-0.87-0.62,0.46-0.79,1-1.66c-0.25-1.75-0.85-2.55-2.25-4.55c-4.85-5.58-11.271-10.85-19.72-14.72c0,0-17.03-9.32-36.61-5.73
			c-19.58,3.58-30.67,12.91-30.67,12.91c-8.66,7-17.83,18.3-19.271,27.05c-0.39,3.29,0.44,8.62,4.19,9.811
			c1.94,0.34,3.42,0.479,5.12-2c5.71-7.021,10.58-23.331,19.63-24.86c9.25,0.25,10.63,10.55,10.33,17.92
			c0.09,2.33-0.271,4.13-0.64,5.63c1.47-0.16,2.85-0.14,5.689,1c2.73,1.14,3.71,1.63,6,3.37c4.83-7.67,10.8-18.02,20.4-15.51
			c2.55,0.84,5.39,3.26,5.689,5.689c0.59,6.011,0.28,5.9-1.22,18.74c-0.25,3,2.5,2.91,5.42,5.5c1.97,1.9,1.75,4.62,0,3.5
			c-6.13-4.17-11.21-7.09-14.979-8.11c-3.73-0.93-4.94-1.6-7.75,0.19c-4.381,2.88-1.381,14.53-10.08,14.16
			c-6.94-1.83-6.44,0.01-7.66,2.28c-0.87,1.729-1.4,2.989-0.92,4.949c2.76,9.07,19.14,15.99,25.72,15.99c7.5,0,12.48-9.06,17.5-9.2
			c-0.17,2.57-9.44,11.65-18.58,11.65c-8.229,0-13.67-5.33-19.92-8.66c-5.07,3.65-16,13.75-16.17,18.41
			c0.17,3.25,2.5,4.84,6.53,5.62c6.89,0.38,10.6-11.28,18.62-11.771c-0.061,1.57-2.261,2.45-3.811,3.49
			c-2.68,1.78-5.09,4.33-3.03,6.24c2.391,1.8,4.351,2.24,6.061,1.939l0.22,1.181c-5.77,1.02-8.79-2.29-8.65-4.95
			c-1.52,1.34-2.539,2.6-2.689,2.8c-0.9,0.73-1.25,2.2-6.16,2.58c-4.09,0.04-7.34-1.71-8.75-5.54c-0.92-4,1.42-4.76,2.021-6.54
			c-2.11,1.521-4.771,5.41-7.69,5c-1.53-0.149-4.54-1.5-6.17-3.84c-2-2.96-0.83-3.85-0.08-5.16c-5.87,1-9.12-4.38-7.62-7.88
			c-5.13-0.19-5.6-1.37-6.96-2.83c-1.32-1.79-1.27-3.71-0.92-5.17c1.07-4.46,7.42-7.69,11.25-11.08c-2.37-4.72-4.08-5-4.5-14
			c0-3.09,1.67-6.75,1.67-8.34c-2.75-0.33-5.979-2.07-7.29-4.39c-1.899-3.351-2.33-6.7-0.53-11.011
			c11.19-28.55,44.721-43.56,73.761-37.81c17.779,4.81,36.6,14.87,40.949,34.34C404.75,399.5,415.25,412.45,416,413.89z
			 M360.15,413.82c10.54-4.011,0.85-19.15-4.33-19.19c-1.21-0.01-2,0.71-2.99,1.54c-2.45,2.07-4.64,5.85-6.69,8.28
			c-2.239,3.04,0.431,5.37,3.61,3.55c2.25-1.29,2.37-5.76,6.33-5.33C360.75,403.17,354.81,412.12,360.15,413.82z M343.25,427.33
			c4.29-9.7-2.92-20.57-13.75-20.74c-4.81,0.94-10,7.18-10.25,12.75c0,2.54,1.58,5.22,4.53,6.91c3.59,2.06,8.22-0.5,10.72-2.58
			C336.67,426.75,339.06,431.99,343.25,427.33z M321.04,440.34c5.21,0.16,7.54-5.22,7.13-9.56c-6.01-0.33-10.229-4.96-11.09-10.2
			c-0.78-4.8,1.34-10.14,6.09-12.91c-6.17-1.479-9.79-1.67-13.55-4.42c-8.061-3.06-11.44,12.16-10.79,18.25
			c0.34,3.08,2.77,7.65,5.34,10.42C308.42,435.92,315.17,440.3,321.04,440.34z M322.77,403.06c3.98,0,5.48-5.979,5.421-9.75
			c-0.19-4.229-4.07-8.58-7.69-9.12c-4.06-0.21-6,1.84-8.34,4.81c-2.05,2.46-2.04,2.66-3.28,4.63c-2.16,4.28,0.54,4.8,1.74,4.84
			c3.3,0.11,3.57-6.59,7.32-6.59C322.79,391.88,319,400.94,322.77,403.06z M332.21,447.08c-2-1.41-3.5-2.75-4.83-4.37
			c-6.34,0.33-11.16-0.38-16.07-2.46c-4.93-2.42-5.77-3.21-9.27-6.71c-4.49,1.79-10.95,7.42-10.75,10.96
			c0.479,3.1,3.09,4.74,5.34,4.67c2.24-0.07,4.45-4.17,8.08-4.79c-0.25,2.87-5.94,5.48-5.63,8.12c0.63,3.12,1.34,3.87,3.5,4.5
			c2.67,0.46,6.96-5.37,11.2-6.42c-0.99,3.25-7.261,6.54-7.86,10.06c-0.25,1.601,1.33,3.5,2.87,4.36c1.65,1,3.44,1.35,4.75,0.29
			C318.46,461.21,326.46,454,332.21,447.08z"/>
		<path d="M407.67,424.52l0.48,1.051c-2.48,1.13-5.011,2.319-6.69,3.35c-2.04,1.79-4.96,5.21-6.42,7.54
			c3.56,5.1,14.78,10.22,8.47,17.54c-17.109,9.3-47.26,26.63-52.43,26.52c-2-0.039-8.3-3.52-5.86-6.68
			c-0.63,0.19-1.229,0.34-1.8,0.44l-0.22-1.181c2.229-0.399,4.01-2.09,5.72-3.68c1.8-1.68,2.91-3.75,5.5-3.05
			c-0.13,2.71-10.25,6.46-7.34,9.96c1.64,2.02,3.21,2.88,6,2.25c12-5.5,15.09-8.08,26.09-13.33c0.36-0.45,17.68-9.38,22.46-12.08
			c6.18-4.3-4.5-10.92-7.92-15.5c-4.82,0.89-6.96-2.17-10.08-4.979c-2.439,1.25-5.67,4.659-8.25,4.76
			c1.65-6.021,11.63-12.95,15.42-4.73c2.12,4.82,7.21-2.06,7.58-4.14c0.37-4.33-9.29-8.05-6.42-9.9c2.87-1.85,7.89,6.9,9.88,7.601
			C402.7,426.58,405.16,425.74,407.67,424.52z"/>
		<path d="M355.88,433.12c1.45,0,2.62,1.18,2.62,2.63s-1.17,2.63-2.62,2.63c-1.46,0-2.63-1.18-2.63-2.63
			S354.42,433.12,355.88,433.12z"/>
		<path d="M355.88,443.75c1.45,0,2.62,1.17,2.62,2.63c0,1.45-1.17,2.62-2.62,2.62c-1.46,0-2.63-1.17-2.63-2.62
			C353.25,444.92,354.42,443.75,355.88,443.75z"/>
		<path d="M345,438.38c1.45,0,2.62,1.17,2.62,2.62s-1.17,2.62-2.62,2.62s-2.62-1.17-2.62-2.62S343.55,438.38,345,438.38z"/>
		<radialGradient id="XMLID_17_" cx="331.8789" cy="417.8857" r="11.9804" gradientUnits="userSpaceOnUse">
			<stop  offset="0" style="stop-color:#FFFFFF"/>
			<stop  offset="0.1653" style="stop-color:#FCFCFC"/>
			<stop  offset="0.2961" style="stop-color:#F2F2F2"/>
			<stop  offset="0.4152" style="stop-color:#E1E1E1"/>
			<stop  offset="0.5272" style="stop-color:#CACACA"/>
			<stop  offset="0.6344" style="stop-color:#ABABAB"/>
			<stop  offset="0.7378" style="stop-color:#868686"/>
			<stop  offset="0.8384" style="stop-color:#595959"/>
			<stop  offset="0.9342" style="stop-color:#272727"/>
			<stop  offset="1" style="stop-color:#000000"/>
		</radialGradient>
		<path fill="url(#XMLID_17_)" d="M329.5,406.59c10.83,0.17,18.04,11.04,13.75,20.74c-4.19,4.66-6.58-0.58-8.75-3.66
			c-2.5,2.08-7.13,4.64-10.72,2.58c-2.95-1.69-4.53-4.37-4.53-6.91C319.5,413.77,324.69,407.53,329.5,406.59z"/>
		<path fill="#FFFFFF" d="M328.17,430.78c0.41,4.34-1.92,9.72-7.13,9.56c-5.87-0.04-12.62-4.42-16.87-8.42
			c-2.57-2.77-5-7.34-5.34-10.42c-0.65-6.09,2.729-21.31,10.79-18.25c3.76,2.75,7.38,2.94,13.55,4.42
			c-4.75,2.771-6.87,8.11-6.09,12.91C317.94,425.82,322.16,430.45,328.17,430.78z M315.88,430.88c0-1.46-1.18-2.63-2.63-2.63
			s-2.63,1.17-2.63,2.63c0,1.45,1.18,2.62,2.63,2.62S315.88,432.33,315.88,430.88z M310.25,420c0-1.45-1.17-2.62-2.63-2.62
			c-1.44,0-2.62,1.17-2.62,2.62s1.18,2.62,2.62,2.62C309.08,422.62,310.25,421.45,310.25,420z"/>
		<path fill="#FFFFFF" d="M327.38,442.71c1.33,1.62,2.83,2.96,4.83,4.37c-5.75,6.92-13.75,14.13-18.67,18.21
			c-1.31,1.06-3.1,0.71-4.75-0.29c-1.54-0.86-3.12-2.76-2.87-4.36c0.6-3.52,6.87-6.81,7.86-10.06c-4.24,1.05-8.53,6.88-11.2,6.42
			c-2.16-0.63-2.87-1.38-3.5-4.5c-0.311-2.64,5.38-5.25,5.63-8.12c-3.63,0.62-5.84,4.72-8.08,4.79c-2.25,0.07-4.86-1.57-5.34-4.67
			c-0.2-3.54,6.26-9.17,10.75-10.96c3.5,3.5,4.34,4.29,9.27,6.71C316.22,442.33,321.04,443.04,327.38,442.71z"/>
		<path d="M313.25,428.25c1.45,0,2.63,1.17,2.63,2.63c0,1.45-1.18,2.62-2.63,2.62s-2.63-1.17-2.63-2.62
			C310.62,429.42,311.8,428.25,313.25,428.25z"/>
		<path d="M307.62,417.38c1.46,0,2.63,1.17,2.63,2.62s-1.17,2.62-2.63,2.62c-1.44,0-2.62-1.17-2.62-2.62
			S306.18,417.38,307.62,417.38z"/>
	</g>
	<g>
		<path fill="none" stroke="#000000" stroke-width="0.0938" d="M290.35,393.93c11.19-28.55,44.721-43.56,73.761-37.81
			c17.779,4.81,36.6,14.87,40.949,34.34c-0.31,9.04,10.19,21.99,10.94,23.43c1.5,2.86,1.67,5.61,0,7.681
			c-0.61,0.76-4.18,2.319-7.85,4c-2.48,1.13-5.011,2.319-6.69,3.35c-2.04,1.79-4.96,5.21-6.42,7.54c3.56,5.1,14.78,10.22,8.47,17.54
			c-17.109,9.3-47.26,26.63-52.43,26.52c-2-0.039-8.3-3.52-5.86-6.68c-0.63,0.19-1.229,0.34-1.8,0.44
			c-5.77,1.02-8.79-2.29-8.65-4.95c-1.52,1.34-2.539,2.6-2.689,2.8c-0.9,0.73-1.25,2.2-6.16,2.58c-4.09,0.04-7.34-1.71-8.75-5.54
			c-0.92-4,1.42-4.76,2.021-6.54c-2.11,1.521-4.771,5.41-7.69,5c-1.53-0.149-4.54-1.5-6.17-3.84c-2-2.96-0.83-3.85-0.08-5.16
			c-5.87,1-9.12-4.38-7.62-7.88c-5.13-0.19-5.6-1.37-6.96-2.83c-1.32-1.79-1.27-3.71-0.92-5.17c1.07-4.46,7.42-7.69,11.25-11.08
			c-2.37-4.72-4.08-5-4.5-14c0-3.09,1.67-6.75,1.67-8.34c-2.75-0.33-5.979-2.07-7.29-4.39
			C288.98,401.59,288.55,398.24,290.35,393.93"/>
		<path fill="none" stroke="#000000" stroke-width="0.0938" d="M407.67,424.52c2.44-1.189,4.93-2.739,6-3.939
			c2.46-2.75-0.17-6.83-0.17-6.83s-7.84-11.26-10.21-17.26c-1.12,1.51-1.04,1.68-3.43,3.029c-6.13,2.49-11.41-1.97-13.88-7.25
			c-0.44-1.06,1.35-1.939,1.899-0.52c0.75,1.33,3.04,4.96,5.58,5.79c2.63,0.72,5.63,0.04,7.33-1.92c3.09-3.41,1.54-9.21-2.21-11.79
			c-0.87-0.62,0.46-0.79,1-1.66c-0.25-1.75-0.85-2.55-2.25-4.55c-4.85-5.58-11.271-10.85-19.72-14.72c0,0-17.03-9.32-36.61-5.73
			c-19.58,3.58-30.67,12.91-30.67,12.91c-8.66,7-17.83,18.3-19.271,27.05c-0.39,3.29,0.44,8.62,4.19,9.811
			c1.94,0.34,3.42,0.479,5.12-2c5.71-7.021,10.58-23.331,19.63-24.86c9.25,0.25,10.63,10.55,10.33,17.92
			c0.09,2.33-0.271,4.13-0.64,5.63c1.47-0.16,2.85-0.14,5.689,1c2.73,1.14,3.71,1.63,6,3.37c4.83-7.67,10.8-18.02,20.4-15.51
			c2.55,0.84,5.39,3.26,5.689,5.689c0.59,6.011,0.28,5.9-1.22,18.74c-0.25,3,2.5,2.91,5.42,5.5c1.97,1.9,1.75,4.62,0,3.5
			c-6.13-4.17-11.21-7.09-14.979-8.11c-3.73-0.93-4.94-1.6-7.75,0.19c-4.381,2.88-1.381,14.53-10.08,14.16
			c-6.94-1.83-6.44,0.01-7.66,2.28c-0.87,1.729-1.4,2.989-0.92,4.949c2.76,9.07,19.14,15.99,25.72,15.99c7.5,0,12.48-9.06,17.5-9.2
			c-0.17,2.57-9.44,11.65-18.58,11.65c-8.229,0-13.67-5.33-19.92-8.66c-5.07,3.65-16,13.75-16.17,18.41
			c0.17,3.25,2.5,4.84,6.53,5.62c6.89,0.38,10.6-11.28,18.62-11.771c-0.061,1.57-2.261,2.45-3.811,3.49
			c-2.68,1.78-5.09,4.33-3.03,6.24c2.391,1.8,4.351,2.24,6.061,1.939c2.229-0.399,4.01-2.09,5.72-3.68c1.8-1.68,2.91-3.75,5.5-3.05
			c-0.13,2.71-10.25,6.46-7.34,9.96c1.64,2.02,3.21,2.88,6,2.25c12-5.5,15.09-8.08,26.09-13.33c0.36-0.45,17.68-9.38,22.46-12.08
			c6.18-4.3-4.5-10.92-7.92-15.5c-4.82,0.89-6.96-2.17-10.08-4.979c-2.439,1.25-5.67,4.659-8.25,4.76
			c1.65-6.021,11.63-12.95,15.42-4.73c2.12,4.82,7.21-2.06,7.58-4.14c0.37-4.33-9.29-8.05-6.42-9.9c2.87-1.85,7.89,6.9,9.88,7.601
			C402.7,426.58,405.16,425.74,407.67,424.52z"/>
		<path fill="none" stroke="#000000" stroke-width="0.0938" d="M308.88,393.63c-2.16,4.28,0.54,4.8,1.74,4.84
			c3.3,0.11,3.57-6.59,7.32-6.59c4.85,0,1.06,9.061,4.829,11.18c3.98,0,5.48-5.979,5.421-9.75c-0.19-4.229-4.07-8.58-7.69-9.12
			c-4.06-0.21-6,1.84-8.34,4.81C310.11,391.46,310.12,391.66,308.88,393.63z"/>
		<path fill="none" stroke="#000000" stroke-width="0.0938" d="M346.14,404.45c-2.239,3.04,0.431,5.37,3.61,3.55
			c2.25-1.29,2.37-5.76,6.33-5.33c4.67,0.5-1.271,9.45,4.07,11.15c10.54-4.011,0.85-19.15-4.33-19.19c-1.21-0.01-2,0.71-2.99,1.54
			C350.38,398.24,348.19,402.02,346.14,404.45z"/>
		<path fill="none" stroke="#000000" stroke-width="0.0938" d="M298.83,421.5c0.34,3.08,2.77,7.65,5.34,10.42
			c4.25,4,11,8.38,16.87,8.42c5.21,0.16,7.54-5.22,7.13-9.56c-6.01-0.33-10.229-4.96-11.09-10.2c-0.78-4.8,1.34-10.14,6.09-12.91
			c-6.17-1.479-9.79-1.67-13.55-4.42C301.56,400.19,298.18,415.41,298.83,421.5z"/>
		<path fill="none" stroke="#000000" stroke-width="0.0938" d="M323.78,426.25c3.59,2.06,8.22-0.5,10.72-2.58
			c2.17,3.08,4.56,8.32,8.75,3.66c4.29-9.7-2.92-20.57-13.75-20.74c-4.81,0.94-10,7.18-10.25,12.75
			C319.25,421.88,320.83,424.56,323.78,426.25z"/>
		<path fill="none" stroke="#000000" stroke-width="0.0938" d="M291.29,444.5c0.479,3.1,3.09,4.74,5.34,4.67
			c2.24-0.07,4.45-4.17,8.08-4.79c-0.25,2.87-5.94,5.48-5.63,8.12c0.63,3.12,1.34,3.87,3.5,4.5c2.67,0.46,6.96-5.37,11.2-6.42
			c-0.99,3.25-7.261,6.54-7.86,10.06c-0.25,1.601,1.33,3.5,2.87,4.36c1.65,1,3.44,1.35,4.75,0.29c4.92-4.08,12.92-11.29,18.67-18.21
			c-2-1.41-3.5-2.75-4.83-4.37c-6.34,0.33-11.16-0.38-16.07-2.46c-4.93-2.42-5.77-3.21-9.27-6.71
			C297.55,435.33,291.09,440.96,291.29,444.5z"/>
		<path fill="none" stroke="#000000" stroke-width="0.0938" d="M333.59,374.19c-0.1-3.31,2.72-6.46,3.96-7.11
			c2.681-1.4,4.07-1.88,7.07-0.89c1.81,0.59,4.34,3.6,8.21,4.85c3.84,1.24,5.92,0.08,9.21,0.75c4.92,1,7.04,2.55,6.11,5.69
			c-1.32,4.48-9.58,5.76-13.48,6.44c-3.91,0.68-3.53,0.97-7.67,1c-1.83,0.01-3.06,0.83-4.56,2.39c-0.971,0.94-1.86,3.07-2.53,3.44
			c-0.63,0.35-0.91-0.36-1.11-1.26c-0.58-2.57-0.229-4.77-1.109-6.18C337.22,382.56,333.56,379.31,333.59,374.19z"/>
		<path fill="none" stroke="#000000" stroke-width="0.0938" d="M360.33,374.42c-3.08,0.25-7.17,0.39-9.62-0.38
			c-4.56-1.5-5.79-5.75-9.65-5.73c-4.31,0.07-5.359,4.36-4.56,7.27c1.08,3.34,1.83,4.67,4.67,5.67c4.33,1.17,3.25,1.42,11.83,0.5
			c4.42-0.58,10.81-1.63,12.31-4.19C365.6,375.53,363.96,374.04,360.33,374.42z"/>
		<path fill="none" stroke="#000000" stroke-width="0.0938" d="M355.88,433.12c1.45,0,2.62,1.18,2.62,2.63s-1.17,2.63-2.62,2.63
			c-1.46,0-2.63-1.18-2.63-2.63S354.42,433.12,355.88,433.12z"/>
		<path fill="none" stroke="#000000" stroke-width="0.0938" d="M355.88,443.75c1.45,0,2.62,1.17,2.62,2.63
			c0,1.45-1.17,2.62-2.62,2.62c-1.46,0-2.63-1.17-2.63-2.62C353.25,444.92,354.42,443.75,355.88,443.75z"/>
		<path fill="none" stroke="#000000" stroke-width="0.0938" d="M345,438.38c1.45,0,2.62,1.17,2.62,2.62s-1.17,2.62-2.62,2.62
			s-2.62-1.17-2.62-2.62S343.55,438.38,345,438.38z"/>
		<path fill="none" stroke="#000000" stroke-width="0.0938" d="M307.62,417.38c1.46,0,2.63,1.17,2.63,2.62s-1.17,2.62-2.63,2.62
			c-1.44,0-2.62-1.17-2.62-2.62S306.18,417.38,307.62,417.38z"/>
		<path fill="none" stroke="#000000" stroke-width="0.0938" d="M313.25,428.25c1.45,0,2.63,1.17,2.63,2.63
			c0,1.45-1.18,2.62-2.63,2.62s-2.63-1.17-2.63-2.62C310.62,429.42,311.8,428.25,313.25,428.25z"/>
	</g>
</g>
</svg>
