<?xml version="1.0" encoding="UTF-8" standalone="no"?>
<!DOCTYPE svg PUBLIC "-//W3C//DTD SVG 1.1//EN" "http://www.w3.org/Graphics/SVG/1.1/DTD/svg11.dtd">
<!--Generated by Intaglio, www.PurgatoryDesign.com-->
<svg version="1.1" viewBox="0,0,559,783" width="559" height="783" xmlns="http://www.w3.org/2000/svg" xmlns:xlink="http://www.w3.org/1999/xlink"><defs><linearGradient id="266a51a0" gradientUnits="userSpaceOnUse"><stop offset="0" stop-color="#0ff"/><stop offset="0.3708" stop-color="#00ccc2"/><stop offset="1" stop-color="#0ff"/></linearGradient><linearGradient id="266a5940" gradientUnits="userSpaceOnUse"><stop offset="0" stop-color="#ffb000"/><stop offset="0.6573" stop-color="#ff0"/><stop offset="1" stop-color="#fffc96"/></linearGradient><linearGradient id="266a5c60" gradientUnits="userSpaceOnUse"><stop offset="0" stop-color="#00f"/><stop offset="0.0955" stop-color="#0000fe"/><stop offset="1" stop-color="#5fabff"/></linearGradient><linearGradient id="266a62a0" gradientUnits="userSpaceOnUse"><stop offset="0" stop-color="#00f"/><stop offset="0.0955" stop-color="#0000fe"/><stop offset="1" stop-color="#5fabff"/></linearGradient><radialGradient id="266a8060" gradientUnits="userSpaceOnUse"><stop offset="0" stop-color="#fff"/><stop offset="0.1653" stop-color="#fcfcfc"/><stop offset="0.2961" stop-color="#f2f2f2"/><stop offset="0.4152" stop-color="#e1e1e1"/><stop offset="0.5272" stop-color="#cacaca"/><stop offset="0.6344" stop-color="#ababab"/><stop offset="0.7378" stop-color="#868686"/><stop offset="0.8384" stop-color="#595959"/><stop offset="0.9342" stop-color="#272727"/><stop offset="1" stop-color="#000"/></radialGradient></defs><linearGradient id="2669b100" xlink:href="#266a51a0" x1="153.4" y1="267.93" x2="183.06" y2="267.93"/><path fill="url(#2669b100)" d="M166.63,255.93 C162.91,262.51,160.5,266.33,162.33,272 C164.33,276.17,167.9,278.88,171.17,282 C175.24,285.89,179.25,289.97,183.06,293.97 C181.5,295.24,179.7,299.05,177.76,299.68 C175.29,295.67,170.75,292.17,166.12,292.5 C163.04,288.5,162.58,280.76,156.01,281.13 C160.39,276.62,158.88,270.5,153.59,267.65 C159.18,260.37,159.5,252.2,153.4,245.08 C156.81,240.19,165.29,242.9,167.99,236.18 C174.24,241.44,170.63,248.85,166.63,255.93 Z"/><g><path d="M183.06,293.97 C179.25,289.97,175.24,285.89,171.17,282 C167.9,278.88,164.33,276.17,162.33,272 C160.5,266.33,162.91,262.51,166.63,255.93 C170.63,248.85,174.24,241.44,167.99,236.18 C165.29,242.9,156.81,240.19,153.4,245.08 C159.5,252.2,159.18,260.37,153.59,267.65 C158.88,270.5,160.39,276.62,156.01,281.13 C162.58,280.76,163.04,288.5,166.12,292.5 C170.75,292.17,175.29,295.67,177.76,299.68 C179.7,299.05,181.5,295.24,183.06,293.97 Z M197.67,303.33 C200.92,303.29,211.25,293.08,210.71,289.83 C210.78,288.14,207.77,284.35,204.34,281.56 C201.54,279.29,198.46,277.79,196.53,277.78 C194.72,278.01,191.9,280.54,189.81,282.5 C187.17,285.89,184.31,288.72,184.22,290.44 C183.97,292.62,186.94,297.16,189.66,298.75 C189.21,297.12,191.19,294,193.31,293.59 C193.95,294.56,190.08,298.12,190.75,299.93 C192.54,302,194.75,303.67,197.67,303.33 Z M185.41,266.47 C188.08,268,193.28,273.88,195.44,276.03 C196.22,275.66,196.11,275.62,196.94,275.71 C198.42,275.87,202.72,278.69,204.1,279.72 C205.48,280.74,207.29,282.75,208.72,284.23 C209.39,285.09,210.78,286.16,211.47,286.59 C214.65,288.6,220.08,288.5,233.34,283.36 C235.58,282.42,241.42,278.89,244.17,276.52 C245.55,275.33,250.29,270.02,254.25,264.58 C255.59,262.75,258.92,259.92,261.12,253.75 C263.67,246.62,262.89,238.67,260.22,232.42 C258.3,228.09,256.82,227.22,255.47,225.01 C252.76,221.13,248.96,216.91,246.25,212.69 C243.55,208.46,241.94,204.24,240.91,202.64 C236.75,196.17,230.06,191.13,222.75,188.75 C215.44,186.37,208.08,185.33,199.8,188.33 C190.95,192.07,183.25,196.67,176.67,205.5 C170.78,213.51,166.9,223.92,168.81,234.06 C176.3,239.24,174.41,245.77,170.79,252.44 C167.18,259.12,161.15,266.93,164.9,272.63 C167.33,276.33,170.55,278.7,173.5,281.67 C176.39,284.58,179.84,287.14,182.46,290.15 C182.46,290.09,182.79,290.18,183,288.96 C184.29,285.7,186.26,284.01,188.06,282.22 C189.85,280.43,191.71,278.71,193.74,277.21 C192.02,275.24,190.02,273.52,188.05,271.74 C186.75,270.57,184.75,268.48,183.03,267.45 C182.24,266.98,182.07,266.28,182.38,266.06 C184.31,264.71,186.73,263.12,187.6,261.22 C188.46,259.32,188.67,257.66,188.89,255.84 C188.97,255.09,188.78,254.5,188.92,253.68 C189.05,252.86,190.28,253.35,190.6,254.4 C190.91,255.44,190.94,256.44,190.94,256.94 C190.94,258.78,190.51,260.69,189.32,262.37 C188.13,264.04,186.76,265.3,185.41,266.47 Z M267.67,278.58 C272.16,274.27,274.96,272.67,274.62,270.33 C274.42,265.13,267.15,259.53,262.13,256.94 C257.38,266.25,252.83,269.5,250.13,272.82 C249.85,274.06,250.68,275.4,253.42,277.12 C253.42,277.12,255,272.97,257.1,273.78 C256.5,275.44,254.94,276.81,255.13,278.19 C257.92,283,260.92,285.67,267.67,278.58 Z M275.33,267.67 C275.79,268.92,276.71,269.83,275.33,273 C273.46,275.58,264.71,283.96,261.75,284.17 C258,283.99,255.8,281.92,253.5,279.33 C251.79,277.41,249.7,276.2,248.2,274.39 C247.36,275.29,245.19,278.28,238.42,282.42 C233.25,285.58,220.83,289.72,212.17,289.5 C210.92,295.58,204.08,302.25,198.46,304.62 C193,306.08,187,298.38,184,295.62 C182.5,296,180.37,299.81,177.5,300.92 C176.08,298.62,174.33,296.29,171.96,294.88 C169.3,293.16,168.28,293.34,165.5,293.5 C164.08,291.04,162.33,286.46,160.75,284.17 C158.46,282,156.67,282.58,154.08,281.83 C155.21,280.08,157.67,276.88,157,274.17 C155.67,269.17,154.68,269.95,152.08,267.83 C155.58,261.92,156.12,260,156.33,256.92 C156.08,251.5,155.21,248.92,151.08,245.21 C153.45,240.6,157.88,240.42,161.45,239.25 C163.36,238.62,165.33,237.42,166.09,235.77 C164.62,222.94,168.83,212.92,176.5,203 C182.5,195,190.55,190.55,198.03,187.06 C215.42,180.99,234,187.62,243.25,203.62 C244.64,206.14,246.36,209.74,248.21,212.5 C252.21,218.5,256.83,223.85,260.08,228.75 C264.67,236.17,264.06,245.68,263,253.75 C262.69,256.44,264.94,256.75,266.06,257.81 C269.8,260.7,273.85,263.63,275.33,267.67 Z"/><linearGradient id="266a5b80" xlink:href="#266a5940" x1="163.715" y1="238.318" x2="262.677" y2="238.318"/><path fill="url(#266a5b80)" d="M195.44,276.03 C193.28,273.88,188.08,268,185.41,266.47 C186.76,265.3,188.13,264.04,189.32,262.37 C190.51,260.69,190.94,258.78,190.94,256.94 C190.94,256.44,190.91,255.44,190.6,254.4 C190.28,253.35,189.05,252.86,188.92,253.68 C188.78,254.5,188.97,255.09,188.89,255.84 C188.67,257.66,188.46,259.32,187.6,261.22 C186.73,263.12,184.31,264.71,182.38,266.06 C182.07,266.28,182.24,266.98,183.03,267.45 C184.75,268.48,186.75,270.57,188.05,271.74 C190.02,273.52,192.02,275.24,193.74,277.21 C191.71,278.71,189.85,280.43,188.06,282.22 C186.26,284.01,184.29,285.7,183,288.96 C182.79,290.18,182.46,290.09,182.46,290.15 C179.84,287.14,176.39,284.58,173.5,281.67 C170.55,278.7,167.33,276.33,164.9,272.63 C161.15,266.93,167.18,259.12,170.79,252.44 C174.41,245.77,176.3,239.24,168.81,234.06 C166.9,223.92,170.78,213.51,176.67,205.5 C183.25,196.67,190.95,192.07,199.8,188.33 C208.08,185.33,215.44,186.37,222.75,188.75 C230.06,191.13,236.75,196.17,240.91,202.64 C241.94,204.24,243.55,208.46,246.25,212.69 C248.96,216.91,252.76,221.13,255.47,225.01 C256.82,227.22,258.3,228.09,260.22,232.42 C262.89,238.67,263.67,246.62,261.12,253.75 C258.92,259.92,255.59,262.75,254.25,264.58 C250.29,270.02,245.55,275.33,244.17,276.52 C241.42,278.89,235.58,282.42,233.34,283.36 C220.08,288.5,214.65,288.6,211.47,286.59 C210.78,286.16,209.39,285.09,208.72,284.23 C207.29,282.75,205.48,280.74,204.1,279.72 C202.72,278.69,198.42,275.87,196.94,275.71 C196.11,275.62,196.22,275.66,195.44,276.03 Z"/></g><linearGradient id="266a60b0" xlink:href="#266a5c60" x1="249.583" y1="269.793" x2="274.648" y2="269.793"/><path fill="url(#266a60b0)" d="M274.62,270.33 C274.96,272.67,272.16,274.27,267.67,278.58 C260.92,285.67,257.92,283,255.13,278.19 C254.94,276.81,256.5,275.44,257.1,273.78 C255,272.97,253.42,277.12,253.42,277.12 C250.68,275.4,249.834,274.666,249.584,273.166 C254.954,266.68,259.313,259.999,261.917,256.666 C266.937,259.257,274.42,265.13,274.62,270.33 Z"/><linearGradient id="266a6620" xlink:href="#266a62a0" x1="184.206" y1="290.577" x2="210.73" y2="290.577"/><path fill="url(#266a6620)" d="M210.71,289.83 C211.25,293.08,200.92,303.29,197.67,303.33 C194.75,303.67,192.54,302,190.75,299.93 C190.08,298.12,193.95,294.56,193.31,293.59 C191.19,294,189.21,297.12,189.66,298.75 C186.94,297.16,183.97,292.62,184.22,290.44 C184.31,288.72,187.17,285.89,189.81,282.5 C191.9,280.54,194.72,278.01,196.53,277.78 C198.46,277.79,201.54,279.29,204.34,281.56 C207.77,284.35,210.78,288.14,210.71,289.83 Z"/><path stroke="#000" stroke-width="0.0938" d="M225.771,207.319 C225.771,206.166,228.396,206.229,230.646,206.354 C231.638,206.389,233.439,206.785,234.313,207.062 C235.688,207.5,239.065,210.654,238.251,211.246 C237.73,211.625,236.375,210.479,235.105,209.604 C233.98,208.896,232.292,208.25,230.292,208.125 C227.193,207.99,225.917,208.188,225.771,207.319 Z"/><path stroke="#000" stroke-width="0.0938" d="M243.25,228.125 C256.08,224.465,262.43,237.83,260.49,247.92 C259.17,254.26,253.25,258.25,248.37,262.56 C239.125,271.125,217.81,261.12,227.12,249.11 C235.125,243.25,236.27,233.065,243.25,228.125"/><path stroke="#000" stroke-width="0.0938" d="M211.016,260.422 C211.103,259.971,211.391,260,211.408,260.583 C211.308,261.889,211.313,261.708,210.917,264.812 C210.839,265.546,211.203,266.234,211.922,266.984 C214.531,269.687,220.064,273.276,224.875,273.667 C226.813,273.824,230.889,273.589,234.542,272.625 C237.598,271.818,239.199,270.652,242.394,269.127 C243.641,268.532,244.543,269.769,243.5,270.75 C241.849,271.444,238.646,273.319,232.667,274.666 C228.167,275.333,225.209,275.833,219.75,274.083 C214.875,272.25,214.583,271.791,209.09,267.709 C208.446,267.23,207.03,267.763,206.058,267.989 C205.058,268.27,204.381,268.396,203.964,268.442 C203.172,268.53,203.459,268.229,203.917,268.083 C205.755,267.401,208.086,266.697,208.959,265.541 C209.884,264.317,210.609,262.516,211.016,260.422 Z"/><path stroke="#000" stroke-width="0.0938" d="M215.196,227.288 C215.605,226.375,216.581,226.562,217.134,227.248 C217.615,230,217.602,231.838,217.153,234.108 C216.639,234.938,215.578,235.722,215.031,234.188 C214.487,230.597,214.571,229.625,215.196,227.288 Z"/><path stroke="#000" stroke-width="0.0938" d="M231.622,221.08 C232.022,220.167,232.976,220.354,233.517,221.04 C233.987,223.792,233.975,225.63,233.536,227.9 C233.034,228.73,231.996,229.514,231.461,227.98 C230.929,224.389,231.011,223.417,231.622,221.08 Z"/><path fill="#fff" stroke="#fff" stroke-width="0.0938" d="M233.734,251.016 C233.734,251.836,233.07,252.5,232.25,252.5 C231.43,252.5,230.766,251.836,230.766,251.016 C230.766,250.196,231.43,249.532,232.25,249.532 C233.07,249.532,233.734,250.196,233.734,251.016 L233.734,251.016 Z"/><path stroke="#000" stroke-width="0.0938" d="M212.906,213.688 C210.812,213.938,209.718,214.5,208.594,215.688 C207.344,216.844,205.594,220.782,204.667,220.417 C203.731,220.049,205.844,214.375,209.469,212.906 C210.482,212.495,212.134,212.069,213.126,212.034 C215.376,211.909,217.72,211.753,217.719,212.906 C217.761,213.962,216.005,213.552,212.906,213.688 Z"/><g><g><path fill="#fff" d="M341.17,381.25 C338.33,380.25,337.58,378.92,336.5,375.58 C335.7,372.67,336.75,368.38,341.06,368.31 C344.92,368.29,346.153,372.54,350.71,374.04 C353.16,374.81,357.25,374.67,360.33,374.42 C363.96,374.04,365.6,375.53,365.309,377.56 C363.809,380.12,357.419,381.17,352.999,381.75 C344.42,382.67,345.5,382.42,341.17,381.25 Z"/><path d="M337.55,367.08 C340.233,365.68,341.62,365.2,344.62,366.19 C346.43,366.78,348.96,369.79,352.83,371.04 C356.67,372.28,358.75,371.12,362.04,371.79 C366.96,372.79,369.08,374.34,368.15,377.48 C366.83,381.96,358.57,383.24,354.67,383.92 C350.76,384.6,351.14,384.89,347,384.92 C345.17,384.93,343.939,385.75,342.439,387.31 C341.467,388.25,340.58,390.38,339.91,390.75 C339.28,391.1,339,390.39,338.8,389.49 C338.22,386.92,338.571,384.72,337.693,383.31 C337.22,382.56,333.56,379.31,333.59,374.19 C333.49,370.88,336.31,367.73,337.55,367.08 Z M350.71,374.04 C346.15,372.54,344.92,368.29,341.06,368.31 C336.75,368.38,335.703,372.67,336.5,375.58 C337.58,378.92,338.33,380.25,341.17,381.25 C345.5,382.42,344.42,382.67,353,381.75 C357.42,381.17,363.81,380.12,365.31,377.56 C365.6,375.53,363.96,374.04,360.331,374.42 C357.25,374.67,353.16,374.81,350.71,374.04 Z"/><path fill="#fff" d="M413.5,413.75 C413.5,413.75,416.13,417.83,413.67,420.58 C412.6,421.78,410.11,423.33,407.67,424.518 C405.16,425.741,402.7,426.58,401.84,426.281 C399.85,425.581,394.83,416.831,391.96,418.678 C389.09,420.531,398.75,424.248,398.38,428.578 C398.01,430.658,392.92,437.538,390.8,432.718 C387.01,424.498,377.03,431.428,375.38,437.448 C377.96,437.345,381.192,433.937,383.63,432.687 C386.75,435.498,388.89,438.555,393.71,437.666 C397.13,442.246,407.81,448.866,401.63,453.166 C396.85,455.866,379.53,464.796,379.17,465.246 C368.17,470.496,365.08,473.076,353.08,478.576 C350.29,479.206,348.72,478.346,347.08,476.326 C344.17,472.826,354.29,469.076,354.42,466.366 C351.83,465.666,350.72,467.736,348.92,469.416 C347.21,471.006,345.43,472.696,343.2,473.096 C341.49,473.399,339.53,472.956,337.138,471.158 C335.078,469.248,337.491,466.698,340.168,464.918 C341.718,463.878,343.918,462.998,343.98,461.428 C335.959,461.918,332.25,473.578,325.36,473.199 C321.33,472.419,319,470.829,318.83,467.579 C319,462.919,329.93,452.819,335,449.169 C341.25,452.499,346.69,457.829,354.92,457.829 C364.061,457.829,373.33,448.749,373.5,446.179 C368.48,446.322,363.5,455.379,356,455.379 C349.42,455.379,333.04,448.459,330.28,439.389 C329.8,437.429,330.33,436.169,331.2,434.442 C332.42,432.171,331.92,430.332,338.86,432.162 C347.557,432.532,344.557,420.882,348.94,418.002 C351.75,416.212,352.96,416.882,356.69,417.813 C360.46,418.834,365.54,421.752,371.669,425.922 C373.419,427.042,373.639,424.322,371.669,422.422 C368.749,419.832,365.999,419.922,366.249,416.922 C367.749,404.082,368.059,404.193,367.469,398.182 C367.169,395.752,364.329,393.332,361.781,392.494 C352.178,389.984,346.211,400.334,341.381,408.004 C339.091,406.264,338.111,405.775,335.381,404.634 C332.541,403.494,331.161,403.474,329.693,403.634 C330.061,402.134,330.422,400.334,330.333,398.004 C330.633,390.634,329.253,380.334,320.003,380.084 C310.953,381.614,306.083,397.924,300.373,404.944 C298.673,407.423,297.193,407.284,295.253,406.944 C291.503,405.754,290.674,400.423,291.063,397.132 C292.503,388.382,301.673,377.082,310.334,370.082 C310.334,370.082,321.424,360.752,341.004,357.172 C360.584,353.582,377.614,362.902,377.614,362.902 C386.062,366.772,392.484,372.042,397.334,377.622 C398.734,379.622,399.334,380.422,399.584,382.172 C399.044,383.042,397.714,383.212,398.584,383.832 C402.334,386.412,403.884,392.212,400.794,395.622 C399.094,397.582,396.094,398.262,393.464,397.542 C390.924,396.712,388.634,393.082,387.884,391.752 C387.334,390.332,385.544,391.212,385.987,392.273 C388.457,397.552,393.737,402.011,399.867,399.523 C402.257,398.171,402.177,398.002,403.297,396.494 C405.66,402.49,413.5,413.75,413.5,413.75 Z M368.15,377.48 C369.08,374.34,366.96,372.79,362.04,371.79 C358.75,371.12,356.67,372.28,352.83,371.04 C348.96,369.79,346.43,366.78,344.62,366.19 C341.62,365.2,340.23,365.68,337.55,367.08 C336.31,367.73,333.49,370.88,333.59,374.19 C333.56,379.31,337.22,382.56,337.693,383.31 C338.573,384.72,338.22,386.92,338.8,389.49 C339,390.39,339.28,391.1,339.91,390.75 C340.58,390.38,341.47,388.25,342.44,387.31 C343.94,385.75,345.169,384.93,347,384.92 C351.14,384.89,350.76,384.6,354.67,383.92 C358.57,383.24,366.83,381.96,368.15,377.48 Z M358.5,435.75 C358.5,434.3,357.33,433.12,355.88,433.12 C354.42,433.12,353.25,434.3,353.25,435.75 C353.25,437.2,354.42,438.38,355.88,438.38 C357.33,438.38,358.5,437.2,358.5,435.75 Z M358.5,446.38 C358.5,444.92,357.33,443.75,355.88,443.75 C354.42,443.75,353.25,444.92,353.25,446.38 C353.25,447.83,354.42,449,355.88,449 C357.33,449,358.5,447.83,358.5,446.38 Z M347.62,441 C347.62,439.55,346.45,438.38,345,438.38 C343.55,438.38,342.38,439.55,342.38,441 C342.38,442.45,343.55,443.62,345,443.62 C346.45,443.62,347.62,442.45,347.62,441 Z"/><path d="M416,413.89 C417.5,416.75,417.67,419.5,416,421.573 C415.39,422.333,411.82,423.89,408.15,425.573 L407.67,424.52 C410.11,423.332,412.6,421.783,413.67,420.582 C416.13,417.832,413.5,413.752,413.5,413.752 C413.5,413.752,405.66,402.492,403.29,396.492 C402.17,398.002,402.25,398.172,399.86,399.52 C393.73,402.009,388.45,397.549,385.98,392.269 C385.54,391.209,387.33,390.331,387.877,391.749 C388.627,393.079,390.917,396.709,393.457,397.539 C396.087,398.259,399.087,397.579,400.787,395.619 C403.877,392.209,402.327,386.409,398.577,383.829 C397.707,383.209,399.037,383.039,399.577,382.169 C399.327,380.419,398.725,379.619,397.327,377.619 C392.475,372.039,386.056,366.769,377.607,362.899 C377.607,362.899,360.577,353.579,340.997,357.169 C321.417,360.749,310.327,370.079,310.327,370.079 C301.667,377.079,292.497,388.379,291.056,397.129 C290.665,400.419,291.495,405.749,295.245,406.941 C297.184,407.281,298.665,407.42,300.365,404.941 C306.075,397.92,310.945,381.608,319.995,380.081 C329.245,380.331,330.625,390.631,330.325,398.001 C330.415,400.331,330.054,402.131,329.683,403.631 C331.155,403.471,332.535,403.491,335.372,404.631 C338.101,405.773,339.082,406.261,341.372,408.001 C346.202,400.331,352.172,389.981,361.772,392.491 C364.322,393.331,367.162,395.751,367.46,398.179 C368.05,404.192,367.74,404.079,366.24,416.919 C365.99,419.919,368.74,419.829,371.66,422.419 C373.63,424.319,373.41,427.039,371.66,425.919 C365.53,421.749,360.45,418.829,356.681,417.809 C352.952,416.879,351.742,416.209,348.931,417.999 C344.549,420.879,347.549,432.529,338.851,432.159 C331.912,430.329,332.412,432.169,331.192,434.439 C330.322,436.168,329.792,437.426,330.272,439.386 C333.032,448.456,349.412,455.376,355.992,455.376 C363.492,455.376,368.471,446.316,373.492,446.176 C373.322,448.746,364.052,457.826,354.912,457.826 C346.683,457.826,341.242,452.496,334.992,449.166 C329.922,452.816,318.992,462.916,318.822,467.576 C318.992,470.826,321.322,472.416,325.351,473.196 C332.242,473.576,335.952,461.916,343.97,461.425 C343.909,462.995,341.709,463.875,340.159,464.915 C337.478,466.695,335.069,469.245,337.129,471.155 C339.521,472.955,341.481,473.394,343.191,473.093 L343.411,474.276 C337.64,475.296,334.621,471.986,334.761,469.326 C333.241,470.666,332.222,471.926,332.073,472.126 C331.173,472.856,330.823,474.326,325.913,474.706 C321.823,474.746,318.573,472.996,317.163,469.166 C316.243,465.166,318.583,464.406,319.184,462.626 C317.075,464.147,314.413,468.036,311.495,467.626 C309.965,467.477,306.955,466.126,305.325,463.786 C303.325,460.826,304.495,459.934,305.245,458.626 C299.375,459.626,296.125,454.246,297.625,450.746 C292.495,450.556,292.024,449.376,290.665,447.916 C289.347,446.126,289.394,444.206,289.745,442.746 C290.813,438.286,297.165,435.056,300.995,431.666 C298.625,426.946,296.915,426.666,296.495,417.666 C296.495,414.576,298.165,410.916,298.165,409.326 C295.415,408.996,292.186,407.256,290.875,404.934 C288.978,401.583,288.545,398.236,290.347,393.923 C301.535,365.373,335.068,350.363,364.108,356.113 C381.885,360.923,400.708,370.983,405.055,390.453 C404.75,399.5,415.25,412.45,416,413.89 Z M360.15,413.82 C370.69,409.807,361,394.67,355.82,394.63 C354.61,394.62,353.82,395.34,352.83,396.17 C350.38,398.24,348.19,402.02,346.14,404.45 C343.903,407.49,346.573,409.82,349.75,408 C352,406.71,352.12,402.24,356.08,402.67 C360.75,403.17,354.81,412.12,360.15,413.82 Z M343.25,427.33 C347.54,417.63,340.33,406.76,329.5,406.59 C324.69,407.53,319.5,413.77,319.25,419.34 C319.25,421.88,320.83,424.56,323.78,426.25 C327.37,428.31,332,425.75,334.5,423.67 C336.67,426.75,339.06,431.99,343.25,427.33 Z M321.04,440.34 C326.25,440.5,328.58,435.12,328.17,430.78 C322.16,430.45,317.941,425.82,317.08,420.58 C316.3,415.78,318.42,410.44,323.17,407.67 C317,406.191,313.38,406,309.62,403.25 C301.558,400.19,298.18,415.41,298.83,421.5 C299.17,424.58,301.6,429.15,304.17,431.92 C308.42,435.92,315.17,440.3,321.04,440.34 Z M322.77,403.06 C326.75,403.06,328.25,397.081,328.193,393.311 C328.003,389.082,324.123,384.73,320.503,384.19 C316.443,383.98,314.503,386.03,312.163,389 C310.113,391.46,310.123,391.66,308.883,393.63 C306.724,397.91,309.423,398.43,310.623,398.47 C313.923,398.58,314.193,391.88,317.943,391.88 C322.79,391.88,319,400.94,322.77,403.06 Z M332.21,447.08 C330.21,445.67,328.71,444.33,327.38,442.71 C321.04,443.04,316.22,442.33,311.31,440.25 C306.38,437.83,305.54,437.04,302.04,433.54 C297.55,435.33,291.09,440.96,291.29,444.5 C291.769,447.6,294.38,449.24,296.63,449.17 C298.87,449.1,301.08,445,304.71,444.38 C304.46,447.25,298.77,449.86,299.08,452.5 C299.71,455.62,300.42,456.37,302.58,457 C305.25,457.46,309.54,451.63,313.78,450.58 C312.79,453.83,306.519,457.12,305.92,460.64 C305.67,462.243,307.25,464.14,308.79,465 C310.44,466,312.23,466.35,313.54,465.29 C318.46,461.21,326.46,454,332.21,447.08 Z"/><path d="M407.67,424.52 L408.15,425.573 C405.67,426.703,403.137,427.89,401.46,428.923 C399.42,430.713,396.5,434.133,395.04,436.463 C398.6,441.564,409.82,446.683,403.51,454.003 C386.403,463.303,356.25,480.633,351.08,480.524 C349.08,480.485,342.78,477.003,345.22,473.842 C344.59,474.032,343.991,474.182,343.42,474.282 L343.2,473.099 C345.429,472.702,347.21,471.009,348.92,469.419 C350.72,467.739,351.83,465.669,354.42,466.369 C354.29,469.079,344.17,472.829,347.08,476.329 C348.72,478.349,350.29,479.209,353.08,478.579 C365.08,473.079,368.17,470.499,379.17,465.249 C379.53,464.799,396.85,455.869,401.63,453.169 C407.81,448.869,397.13,442.249,393.71,437.669 C388.89,438.56,386.75,435.499,383.63,432.69 C381.192,433.94,377.96,437.347,375.38,437.45 C377.03,431.429,387.01,424.5,390.8,432.72 C392.92,437.54,398.01,430.66,398.38,428.58 C398.75,424.25,389.09,420.53,391.96,418.68 C394.83,416.83,399.85,425.58,401.84,426.283 C402.7,426.58,405.16,425.74,407.67,424.52 Z"/><path d="M355.88,433.12 C357.33,433.12,358.5,434.3,358.5,435.75 C358.5,437.2,357.33,438.38,355.88,438.38 C354.42,438.38,353.25,437.2,353.25,435.75 C353.25,434.3,354.42,433.12,355.88,433.12 Z"/><path d="M355.88,443.75 C357.33,443.75,358.5,444.92,358.5,446.38 C358.5,447.83,357.33,449,355.88,449 C354.42,449,353.25,447.83,353.25,446.38 C353.25,444.92,354.42,443.75,355.88,443.75 Z"/><path d="M345,438.38 C346.45,438.38,347.62,439.55,347.62,441 C347.62,442.45,346.45,443.62,345,443.62 C343.55,443.62,342.38,442.45,342.38,441 C342.38,439.55,343.55,438.38,345,438.38 Z"/><radialGradient id="266a8750" xlink:href="#266a8060" cx="331.879" cy="417.886" r="23.9609"/><path fill="url(#266a8750)" d="M329.5,406.59 C340.33,406.76,347.54,417.63,343.25,427.33 C339.06,431.99,336.67,426.75,334.5,423.67 C332,425.75,327.37,428.31,323.78,426.25 C320.83,424.56,319.25,421.88,319.25,419.34 C319.5,413.77,324.69,407.53,329.5,406.59 Z"/><path fill="#fff" d="M328.17,430.78 C328.58,435.12,326.25,440.5,321.04,440.34 C315.17,440.3,308.42,435.92,304.17,431.92 C301.6,429.15,299.17,424.58,298.83,421.5 C298.18,415.41,301.559,400.19,309.62,403.25 C313.38,406,317,406.19,323.17,407.67 C318.42,410.441,316.3,415.78,317.08,420.58 C317.94,425.82,322.16,430.45,328.17,430.78 Z M315.88,430.88 C315.88,429.42,314.7,428.25,313.25,428.25 C311.8,428.25,310.62,429.42,310.62,430.88 C310.62,432.33,311.8,433.5,313.25,433.5 C314.7,433.5,315.88,432.33,315.88,430.88 Z M310.25,420 C310.25,418.55,309.08,417.38,307.62,417.38 C306.18,417.38,305,418.55,305,420 C305,421.45,306.18,422.62,307.62,422.62 C309.08,422.62,310.25,421.45,310.25,420 Z"/><path fill="#fff" d="M327.38,442.71 C328.71,444.33,330.21,445.67,332.21,447.08 C326.46,454,318.46,461.21,313.54,465.29 C312.23,466.35,310.44,466,308.79,465 C307.25,464.14,305.67,462.24,305.92,460.64 C306.52,457.12,312.79,453.83,313.78,450.58 C309.54,451.63,305.25,457.46,302.58,457 C300.42,456.37,299.71,455.62,299.08,452.5 C298.769,449.86,304.46,447.25,304.71,444.38 C301.08,445,298.87,449.1,296.63,449.17 C294.38,449.24,291.77,447.6,291.29,444.5 C291.09,440.96,297.55,435.33,302.04,433.54 C305.54,437.04,306.38,437.83,311.31,440.25 C316.22,442.33,321.04,443.04,327.38,442.71 Z"/><path d="M313.25,428.25 C314.7,428.25,315.88,429.42,315.88,430.88 C315.88,432.33,314.7,433.5,313.25,433.5 C311.8,433.5,310.62,432.33,310.62,430.88 C310.62,429.42,311.8,428.25,313.25,428.25 Z"/><path d="M307.62,417.38 C309.08,417.38,310.25,418.55,310.25,420 C310.25,421.45,309.08,422.62,307.62,422.62 C306.18,422.62,305,421.45,305,420 C305,418.55,306.18,417.38,307.62,417.38 Z"/></g><g><path fill="none" stroke="#000" stroke-width="0.0938" d="M290.35,393.93 C301.54,365.38,335.073,350.37,364.113,356.12 C381.89,360.93,400.713,370.99,405.06,390.46 C404.75,399.5,415.25,412.45,416,413.89 C417.5,416.75,417.67,419.5,416,421.573 C415.39,422.333,411.82,423.89,408.15,425.573 C405.67,426.703,403.137,427.89,401.46,428.923 C399.42,430.713,396.5,434.133,395.04,436.463 C398.6,441.564,409.82,446.683,403.51,454.003 C386.403,463.303,356.25,480.633,351.08,480.524 C349.08,480.485,342.78,477.003,345.22,473.842 C344.59,474.032,343.991,474.182,343.42,474.282 C337.65,475.302,334.63,471.992,334.77,469.332 C333.25,470.672,332.233,471.932,332.082,472.132 C331.182,472.862,330.832,474.332,325.922,474.712 C321.832,474.752,318.582,473.002,317.172,469.172 C316.252,465.172,318.592,464.412,319.193,462.632 C317.083,464.153,314.422,468.042,311.503,467.632 C309.973,467.485,306.963,466.132,305.333,463.792 C303.333,460.832,304.503,459.942,305.253,458.632 C299.383,459.632,296.133,454.252,297.633,450.752 C292.503,450.562,292.033,449.382,290.673,447.922 C289.354,446.132,289.402,444.212,289.753,442.752 C290.823,438.292,297.173,435.062,301.003,431.672 C298.633,426.952,296.923,426.672,296.503,417.672 C296.503,414.582,298.173,410.922,298.173,409.332 C295.423,409.002,292.194,407.262,290.883,404.942 C288.98,401.59,288.55,398.24,290.35,393.93"/><path fill="none" stroke="#000" stroke-width="0.0938" d="M407.67,424.52 C410.11,423.332,412.6,421.783,413.67,420.582 C416.13,417.832,413.5,413.752,413.5,413.752 C413.5,413.752,405.66,402.492,403.29,396.492 C402.17,398.002,402.25,398.172,399.86,399.519 C393.73,402.009,388.45,397.549,385.98,392.269 C385.54,391.209,387.33,390.331,387.877,391.749 C388.627,393.079,390.917,396.709,393.457,397.539 C396.087,398.259,399.087,397.579,400.787,395.619 C403.877,392.209,402.327,386.409,398.577,383.829 C397.707,383.209,399.037,383.039,399.577,382.169 C399.327,380.419,398.725,379.619,397.327,377.619 C392.475,372.039,386.056,366.769,377.607,362.899 C377.607,362.899,360.577,353.579,340.997,357.169 C321.417,360.749,310.327,370.079,310.327,370.079 C301.667,377.079,292.497,388.379,291.056,397.129 C290.665,400.419,291.495,405.749,295.245,406.941 C297.184,407.281,298.665,407.42,300.365,404.941 C306.075,397.92,310.945,381.608,319.995,380.081 C329.245,380.331,330.625,390.631,330.325,398.001 C330.415,400.331,330.054,402.131,329.683,403.631 C331.155,403.471,332.535,403.491,335.372,404.631 C338.101,405.773,339.082,406.261,341.372,408.001 C346.202,400.331,352.172,389.981,361.772,392.491 C364.322,393.331,367.162,395.751,367.46,398.179 C368.05,404.192,367.74,404.079,366.24,416.919 C365.99,419.919,368.74,419.829,371.66,422.419 C373.63,424.319,373.41,427.039,371.66,425.919 C365.53,421.749,360.45,418.829,356.681,417.809 C352.952,416.879,351.742,416.209,348.931,417.999 C344.549,420.879,347.549,432.529,338.851,432.159 C331.912,430.329,332.412,432.169,331.192,434.439 C330.322,436.168,329.792,437.426,330.272,439.386 C333.032,448.456,349.412,455.376,355.992,455.376 C363.492,455.376,368.471,446.316,373.492,446.176 C373.322,448.746,364.052,457.826,354.912,457.826 C346.683,457.826,341.242,452.496,334.992,449.166 C329.922,452.816,318.992,462.916,318.822,467.576 C318.992,470.826,321.322,472.416,325.351,473.196 C332.242,473.576,335.952,461.916,343.97,461.425 C343.909,462.995,341.709,463.875,340.159,464.915 C337.478,466.695,335.069,469.245,337.129,471.155 C339.521,472.955,341.481,473.394,343.191,473.093 C345.42,472.696,347.201,471.003,348.911,469.413 C350.711,467.733,351.821,465.663,354.411,466.363 C354.281,469.073,344.161,472.823,347.071,476.323 C348.711,478.343,350.281,479.203,353.071,478.573 C365.071,473.073,368.161,470.493,379.161,465.243 C379.52,464.793,396.841,455.863,401.621,453.163 C407.801,448.863,397.121,442.243,393.701,437.663 C388.881,438.553,386.741,435.493,383.621,432.684 C381.182,433.934,377.951,437.343,375.371,437.446 C377.02,431.425,387.001,424.496,390.791,432.716 C392.911,437.536,398.001,430.656,398.371,428.576 C398.741,424.246,389.081,420.526,391.951,418.676 C394.821,416.826,399.841,425.576,401.831,426.279 C402.7,426.58,405.16,425.74,407.67,424.52 Z"/><path fill="none" stroke="#000" stroke-width="0.0938" d="M308.88,393.63 C306.721,397.91,309.42,398.43,310.62,398.47 C313.92,398.58,314.19,391.88,317.94,391.88 C322.79,391.88,319,400.942,322.767,403.06 C326.747,403.06,328.247,397.081,328.19,393.311 C328,389.082,324.12,384.73,320.5,384.19 C316.44,383.98,314.5,386.03,312.16,389 C310.11,391.46,310.12,391.66,308.88,393.63 Z"/><path fill="none" stroke="#000" stroke-width="0.0938" d="M346.14,404.45 C343.903,407.49,346.573,409.82,349.75,408 C352,406.71,352.12,402.24,356.08,402.67 C360.75,403.17,354.809,412.12,360.15,413.82 C370.69,409.807,361,394.67,355.82,394.63 C354.61,394.62,353.82,395.34,352.83,396.17 C350.38,398.24,348.19,402.02,346.14,404.45 Z"/><path fill="none" stroke="#000" stroke-width="0.0938" d="M298.83,421.5 C299.17,424.58,301.6,429.15,304.17,431.92 C308.42,435.92,315.17,440.3,321.04,440.34 C326.25,440.5,328.58,435.12,328.17,430.78 C322.16,430.45,317.941,425.82,317.08,420.58 C316.3,415.78,318.42,410.44,323.17,407.67 C317,406.191,313.38,406,309.62,403.25 C301.561,400.19,298.18,415.41,298.83,421.5 Z"/><path fill="none" stroke="#000" stroke-width="0.0938" d="M323.78,426.25 C327.37,428.31,332,425.75,334.5,423.67 C336.67,426.75,339.06,431.99,343.25,427.33 C347.54,417.63,340.33,406.76,329.5,406.59 C324.69,407.53,319.5,413.77,319.25,419.34 C319.25,421.88,320.83,424.56,323.78,426.25 Z"/><path fill="none" stroke="#000" stroke-width="0.0938" d="M291.29,444.5 C291.769,447.6,294.38,449.24,296.63,449.17 C298.87,449.1,301.08,445,304.71,444.38 C304.46,447.25,298.77,449.86,299.08,452.5 C299.71,455.62,300.42,456.37,302.58,457 C305.25,457.46,309.54,451.63,313.78,450.58 C312.79,453.83,306.519,457.12,305.92,460.64 C305.67,462.243,307.25,464.14,308.79,465 C310.44,466,312.23,466.35,313.54,465.29 C318.46,461.21,326.46,454,332.21,447.08 C330.21,445.67,328.71,444.33,327.38,442.71 C321.04,443.04,316.22,442.33,311.31,440.25 C306.38,437.83,305.54,437.04,302.04,433.54 C297.55,435.33,291.09,440.96,291.29,444.5 Z"/><path fill="none" stroke="#000" stroke-width="0.0938" d="M333.59,374.19 C333.49,370.88,336.31,367.73,337.55,367.08 C340.233,365.68,341.62,365.2,344.62,366.19 C346.43,366.78,348.96,369.79,352.83,371.04 C356.67,372.28,358.75,371.12,362.04,371.79 C366.96,372.79,369.08,374.34,368.15,377.48 C366.83,381.96,358.57,383.24,354.67,383.92 C350.76,384.6,351.14,384.89,347,384.92 C345.17,384.93,343.939,385.75,342.439,387.31 C341.467,388.25,340.58,390.38,339.91,390.75 C339.28,391.1,339,390.39,338.8,389.49 C338.22,386.92,338.571,384.72,337.693,383.31 C337.22,382.56,333.56,379.31,333.59,374.19 Z"/><path fill="none" stroke="#000" stroke-width="0.0938" d="M360.33,374.42 C357.25,374.67,353.16,374.81,350.71,374.04 C346.15,372.54,344.92,368.29,341.06,368.31 C336.75,368.38,335.703,372.67,336.5,375.58 C337.58,378.92,338.33,380.25,341.17,381.25 C345.5,382.42,344.42,382.67,353,381.75 C357.42,381.17,363.81,380.12,365.31,377.56 C365.6,375.53,363.96,374.04,360.33,374.42 Z"/><path fill="none" stroke="#000" stroke-width="0.0938" d="M355.88,433.12 C357.33,433.12,358.5,434.3,358.5,435.75 C358.5,437.2,357.33,438.38,355.88,438.38 C354.42,438.38,353.25,437.2,353.25,435.75 C353.25,434.3,354.42,433.12,355.88,433.12 Z"/><path fill="none" stroke="#000" stroke-width="0.0938" d="M355.88,443.75 C357.33,443.75,358.5,444.92,358.5,446.38 C358.5,447.83,357.33,449,355.88,449 C354.42,449,353.25,447.83,353.25,446.38 C353.25,444.92,354.42,443.75,355.88,443.75 Z"/><path fill="none" stroke="#000" stroke-width="0.0938" d="M345,438.38 C346.45,438.38,347.62,439.55,347.62,441 C347.62,442.45,346.45,443.62,345,443.62 C343.55,443.62,342.38,442.45,342.38,441 C342.38,439.55,343.55,438.38,345,438.38 Z"/><path fill="none" stroke="#000" stroke-width="0.0938" d="M307.62,417.38 C309.08,417.38,310.25,418.55,310.25,420 C310.25,421.45,309.08,422.62,307.62,422.62 C306.18,422.62,305,421.45,305,420 C305,418.55,306.18,417.38,307.62,417.38 Z"/><path fill="none" stroke="#000" stroke-width="0.0938" d="M313.25,428.25 C314.7,428.25,315.88,429.42,315.88,430.88 C315.88,432.33,314.7,433.5,313.25,433.5 C311.8,433.5,310.62,432.33,310.62,430.88 C310.62,429.42,311.8,428.25,313.25,428.25 Z"/></g></g></svg>
